<mxfile host="Electron" agent="Mozilla/5.0 (Windows NT 10.0; Win64; x64) AppleWebKit/537.36 (KHTML, like Gecko) draw.io/21.6.8 Chrome/114.0.5735.289 Electron/25.5.0 Safari/537.36" modified="2024-11-28T12:08:09.622Z" version="21.6.8" etag="4GfXE6blJYLZ8U_2_q_g" type="device">
  <diagram name="Side-1" id="6QfjLXT6fySt7YZn31bG">
    <mxGraphModel dx="4526" dy="1997" grid="1" gridSize="10" guides="1" tooltips="1" connect="1" arrows="1" fold="1" page="0" pageScale="1" pageWidth="900" pageHeight="1600" background="none" math="0" shadow="0">
      <root>
        <mxCell id="0" />
        <mxCell id="1" parent="0" />
        <mxCell id="8B9iJ12HIyYSc56M8-5m-1" value="Boundary Object" style="shape=umlBoundary;whiteSpace=wrap;html=1;" parent="1" vertex="1">
          <mxGeometry x="-1720" y="1120" width="100" height="80" as="geometry" />
        </mxCell>
        <mxCell id="8B9iJ12HIyYSc56M8-5m-2" value="Control Object" style="ellipse;shape=umlControl;whiteSpace=wrap;html=1;" parent="1" vertex="1">
          <mxGeometry x="-1570" y="1120" width="70" height="80" as="geometry" />
        </mxCell>
        <mxCell id="8B9iJ12HIyYSc56M8-5m-3" value="Entity Object" style="ellipse;shape=umlEntity;whiteSpace=wrap;html=1;" parent="1" vertex="1">
          <mxGeometry x="-1460" y="1120" width="80" height="80" as="geometry" />
        </mxCell>
        <mxCell id="8B9iJ12HIyYSc56M8-5m-48" value="&lt;font style=&quot;font-size: 20px;&quot;&gt;Perform Login&lt;/font&gt;" style="ellipse;shape=umlControl;whiteSpace=wrap;html=1;strokeWidth=3;" parent="1" vertex="1">
          <mxGeometry x="-810" y="280" width="140" height="160" as="geometry" />
        </mxCell>
        <mxCell id="8B9iJ12HIyYSc56M8-5m-49" value="&lt;font style=&quot;font-size: 20px;&quot;&gt;Login Entity&lt;br&gt;&lt;/font&gt;" style="ellipse;shape=umlEntity;whiteSpace=wrap;html=1;strokeWidth=3;" parent="1" vertex="1">
          <mxGeometry x="-894" y="555" width="160" height="160" as="geometry" />
        </mxCell>
        <mxCell id="8B9iJ12HIyYSc56M8-5m-50" value="" style="group;strokeWidth=1;strokeColor=none;" parent="1" vertex="1" connectable="0">
          <mxGeometry x="-1160" y="279.20000000000005" width="200" height="160" as="geometry" />
        </mxCell>
        <mxCell id="8B9iJ12HIyYSc56M8-5m-51" value="&lt;font style=&quot;font-size: 20px;&quot;&gt;Login page&lt;/font&gt;&lt;br&gt;&lt;hr&gt;" style="shape=umlBoundary;whiteSpace=wrap;html=1;strokeWidth=3;" parent="8B9iJ12HIyYSc56M8-5m-50" vertex="1">
          <mxGeometry width="200" height="160" as="geometry" />
        </mxCell>
        <mxCell id="8B9iJ12HIyYSc56M8-5m-52" value="&lt;p style=&quot;line-height: 140%;&quot;&gt;&lt;/p&gt;&lt;div style=&quot;font-size: 16px;&quot;&gt;&lt;font style=&quot;font-size: 16px;&quot;&gt;- Form Inputs&lt;/font&gt;&lt;/div&gt;&lt;font style=&quot;font-size: 16px;&quot;&gt;- Login Button&lt;/font&gt;&lt;p&gt;&lt;/p&gt;" style="text;html=1;align=center;verticalAlign=middle;whiteSpace=wrap;rounded=0;" parent="8B9iJ12HIyYSc56M8-5m-50" vertex="1">
          <mxGeometry x="42.66666666666668" y="90.66666666666669" width="149.33333333333331" height="53.333333333333336" as="geometry" />
        </mxCell>
        <mxCell id="8B9iJ12HIyYSc56M8-5m-53" value="" style="group;strokeWidth=1;strokeColor=none;" parent="1" vertex="1" connectable="0">
          <mxGeometry x="-617.5" y="560" width="190" height="150" as="geometry" />
        </mxCell>
        <mxCell id="8B9iJ12HIyYSc56M8-5m-54" value="&lt;p style=&quot;line-height: 40%;&quot;&gt;&lt;/p&gt;&lt;h1 style=&quot;font-size: 20px;&quot;&gt;&lt;font size=&quot;1&quot;&gt;&lt;span style=&quot;font-weight: normal; font-size: 20px;&quot;&gt;API interface&lt;/span&gt;&lt;font&gt;&lt;br&gt;&lt;/font&gt;&lt;/font&gt;&lt;/h1&gt;&lt;hr&gt;&lt;p&gt;&lt;/p&gt;" style="shape=umlBoundary;whiteSpace=wrap;html=1;strokeWidth=3;" parent="8B9iJ12HIyYSc56M8-5m-53" vertex="1">
          <mxGeometry width="190" height="150" as="geometry" />
        </mxCell>
        <mxCell id="8B9iJ12HIyYSc56M8-5m-55" value="&lt;font style=&quot;font-size: 16px;&quot;&gt;/login endpoint&lt;br&gt;&lt;/font&gt;" style="text;html=1;align=center;verticalAlign=middle;whiteSpace=wrap;rounded=0;" parent="8B9iJ12HIyYSc56M8-5m-53" vertex="1">
          <mxGeometry x="40" y="90" width="140" height="45" as="geometry" />
        </mxCell>
        <mxCell id="8B9iJ12HIyYSc56M8-5m-59" style="edgeStyle=orthogonalEdgeStyle;rounded=0;orthogonalLoop=1;jettySize=auto;html=1;entryX=0.014;entryY=0.497;entryDx=0;entryDy=0;entryPerimeter=0;strokeWidth=3;" parent="1" source="8B9iJ12HIyYSc56M8-5m-51" target="8B9iJ12HIyYSc56M8-5m-48" edge="1">
          <mxGeometry relative="1" as="geometry" />
        </mxCell>
        <mxCell id="8B9iJ12HIyYSc56M8-5m-75" value="Validate input" style="edgeLabel;html=1;align=center;verticalAlign=middle;resizable=0;points=[];" parent="8B9iJ12HIyYSc56M8-5m-59" vertex="1" connectable="0">
          <mxGeometry x="-0.2877" y="-2" relative="1" as="geometry">
            <mxPoint as="offset" />
          </mxGeometry>
        </mxCell>
        <mxCell id="8B9iJ12HIyYSc56M8-5m-60" style="edgeStyle=orthogonalEdgeStyle;rounded=0;orthogonalLoop=1;jettySize=auto;html=1;entryX=0.578;entryY=0.016;entryDx=0;entryDy=0;entryPerimeter=0;strokeWidth=3;" parent="1" source="8B9iJ12HIyYSc56M8-5m-48" target="8B9iJ12HIyYSc56M8-5m-54" edge="1">
          <mxGeometry relative="1" as="geometry" />
        </mxCell>
        <mxCell id="8B9iJ12HIyYSc56M8-5m-76" value="login user" style="edgeLabel;html=1;align=center;verticalAlign=middle;resizable=0;points=[];" parent="8B9iJ12HIyYSc56M8-5m-60" vertex="1" connectable="0">
          <mxGeometry x="0.0807" y="-6" relative="1" as="geometry">
            <mxPoint y="-1" as="offset" />
          </mxGeometry>
        </mxCell>
        <mxCell id="8B9iJ12HIyYSc56M8-5m-61" style="edgeStyle=orthogonalEdgeStyle;rounded=0;orthogonalLoop=1;jettySize=auto;html=1;entryX=1;entryY=0.5;entryDx=0;entryDy=0;strokeWidth=3;" parent="1" source="8B9iJ12HIyYSc56M8-5m-54" target="8B9iJ12HIyYSc56M8-5m-49" edge="1">
          <mxGeometry relative="1" as="geometry" />
        </mxCell>
        <mxCell id="8B9iJ12HIyYSc56M8-5m-65" value="User" style="shape=umlActor;verticalLabelPosition=bottom;verticalAlign=top;html=1;strokeWidth=3;" parent="1" vertex="1">
          <mxGeometry x="-1540" y="278" width="80" height="160" as="geometry" />
        </mxCell>
        <mxCell id="8B9iJ12HIyYSc56M8-5m-66" style="edgeStyle=orthogonalEdgeStyle;rounded=0;orthogonalLoop=1;jettySize=auto;html=1;entryX=0;entryY=0.498;entryDx=0;entryDy=0;entryPerimeter=0;strokeWidth=3;" parent="1" source="8B9iJ12HIyYSc56M8-5m-65" target="8B9iJ12HIyYSc56M8-5m-51" edge="1">
          <mxGeometry relative="1" as="geometry" />
        </mxCell>
        <mxCell id="8B9iJ12HIyYSc56M8-5m-67" value="&lt;font style=&quot;font-size: 25px;&quot;&gt;Login flow&lt;/font&gt;" style="text;align=center;fontStyle=1;verticalAlign=middle;spacingLeft=3;spacingRight=3;strokeColor=none;rotatable=0;points=[[0,0.5],[1,0.5]];portConstraint=eastwest;html=1;" parent="1" vertex="1">
          <mxGeometry x="-1100" y="230" width="80" height="26" as="geometry" />
        </mxCell>
        <mxCell id="8B9iJ12HIyYSc56M8-5m-69" value="" style="group;strokeWidth=1;strokeColor=none;" parent="1" vertex="1" connectable="0">
          <mxGeometry x="-1210" y="550" width="200" height="160" as="geometry" />
        </mxCell>
        <mxCell id="8B9iJ12HIyYSc56M8-5m-70" value="&lt;font style=&quot;font-size: 20px;&quot;&gt;Editor page&lt;/font&gt;&lt;div&gt;&lt;br/&gt;&lt;/div&gt;" style="shape=umlBoundary;whiteSpace=wrap;html=1;strokeWidth=3;" parent="8B9iJ12HIyYSc56M8-5m-69" vertex="1">
          <mxGeometry width="200" height="160" as="geometry" />
        </mxCell>
        <mxCell id="8B9iJ12HIyYSc56M8-5m-72" style="edgeStyle=orthogonalEdgeStyle;rounded=0;orthogonalLoop=1;jettySize=auto;html=1;entryX=1.001;entryY=0.533;entryDx=0;entryDy=0;entryPerimeter=0;strokeWidth=3;" parent="1" source="8B9iJ12HIyYSc56M8-5m-49" target="8B9iJ12HIyYSc56M8-5m-70" edge="1">
          <mxGeometry relative="1" as="geometry" />
        </mxCell>
        <mxCell id="8B9iJ12HIyYSc56M8-5m-31" style="edgeStyle=orthogonalEdgeStyle;rounded=0;orthogonalLoop=1;jettySize=auto;html=1;entryX=0.99;entryY=0.565;entryDx=0;entryDy=0;entryPerimeter=0;strokeWidth=3;strokeColor=#FF0000;" parent="1" source="8B9iJ12HIyYSc56M8-5m-5" target="8B9iJ12HIyYSc56M8-5m-15" edge="1">
          <mxGeometry relative="1" as="geometry">
            <mxPoint x="700" y="920" as="targetPoint" />
            <Array as="points">
              <mxPoint x="840" y="320" />
              <mxPoint x="840" y="850" />
              <mxPoint x="700" y="850" />
            </Array>
          </mxGeometry>
        </mxCell>
        <mxCell id="8B9iJ12HIyYSc56M8-5m-38" value="&lt;font color=&quot;#ff0000&quot;&gt;Input is invalid&lt;br&gt;&lt;/font&gt;" style="edgeLabel;html=1;align=center;verticalAlign=middle;resizable=0;points=[];" parent="8B9iJ12HIyYSc56M8-5m-31" vertex="1" connectable="0">
          <mxGeometry x="-0.6264" y="-2" relative="1" as="geometry">
            <mxPoint as="offset" />
          </mxGeometry>
        </mxCell>
        <mxCell id="SwdMLuC0Jl6XGdNUzZmq-5" value="Text" style="edgeLabel;html=1;align=center;verticalAlign=middle;resizable=0;points=[];fontSize=16;" vertex="1" connectable="0" parent="8B9iJ12HIyYSc56M8-5m-31">
          <mxGeometry x="-0.4413" y="13" relative="1" as="geometry">
            <mxPoint as="offset" />
          </mxGeometry>
        </mxCell>
        <mxCell id="8B9iJ12HIyYSc56M8-5m-5" value="&lt;font style=&quot;font-size: 20px;&quot;&gt;Perform SignUp&lt;/font&gt;" style="ellipse;shape=umlControl;whiteSpace=wrap;html=1;strokeWidth=3;" parent="1" vertex="1">
          <mxGeometry x="610" y="240" width="140" height="160" as="geometry" />
        </mxCell>
        <mxCell id="8B9iJ12HIyYSc56M8-5m-6" value="&lt;font style=&quot;font-size: 20px;&quot;&gt;SignUp Entity&lt;br&gt;&lt;/font&gt;" style="ellipse;shape=umlEntity;whiteSpace=wrap;html=1;strokeWidth=3;" parent="1" vertex="1">
          <mxGeometry x="296" y="515" width="160" height="160" as="geometry" />
        </mxCell>
        <mxCell id="8B9iJ12HIyYSc56M8-5m-8" value="" style="group;strokeWidth=1;strokeColor=none;" parent="1" vertex="1" connectable="0">
          <mxGeometry x="260" y="239.20000000000005" width="200" height="160" as="geometry" />
        </mxCell>
        <mxCell id="8B9iJ12HIyYSc56M8-5m-4" value="&lt;font style=&quot;font-size: 20px;&quot;&gt;SignUp page&lt;/font&gt;&lt;br&gt;&lt;hr&gt;" style="shape=umlBoundary;whiteSpace=wrap;html=1;strokeWidth=3;" parent="8B9iJ12HIyYSc56M8-5m-8" vertex="1">
          <mxGeometry width="200" height="160" as="geometry" />
        </mxCell>
        <mxCell id="8B9iJ12HIyYSc56M8-5m-7" value="&lt;p style=&quot;line-height: 140%;&quot;&gt;&lt;/p&gt;&lt;div style=&quot;font-size: 16px;&quot;&gt;&lt;font style=&quot;font-size: 16px;&quot;&gt;- Form Inputs&lt;/font&gt;&lt;/div&gt;&lt;font style=&quot;font-size: 16px;&quot;&gt;- SignUp Button&lt;/font&gt;&lt;p&gt;&lt;/p&gt;" style="text;html=1;align=center;verticalAlign=middle;whiteSpace=wrap;rounded=0;" parent="8B9iJ12HIyYSc56M8-5m-8" vertex="1">
          <mxGeometry x="42.66666666666668" y="90.66666666666669" width="149.33333333333331" height="53.333333333333336" as="geometry" />
        </mxCell>
        <mxCell id="8B9iJ12HIyYSc56M8-5m-9" value="" style="group;strokeWidth=1;strokeColor=none;" parent="1" vertex="1" connectable="0">
          <mxGeometry x="572.5" y="520" width="187.5" height="150" as="geometry" />
        </mxCell>
        <mxCell id="8B9iJ12HIyYSc56M8-5m-10" value="&lt;p style=&quot;line-height: 40%;&quot;&gt;&lt;/p&gt;&lt;h1 style=&quot;font-size: 20px;&quot;&gt;&lt;font size=&quot;1&quot;&gt;&lt;span style=&quot;font-weight: normal; font-size: 20px;&quot;&gt;API interface&lt;/span&gt;&lt;font&gt;&lt;br&gt;&lt;/font&gt;&lt;/font&gt;&lt;/h1&gt;&lt;hr&gt;&lt;p&gt;&lt;/p&gt;" style="shape=umlBoundary;whiteSpace=wrap;html=1;strokeWidth=3;" parent="8B9iJ12HIyYSc56M8-5m-9" vertex="1">
          <mxGeometry width="187.5" height="150" as="geometry" />
        </mxCell>
        <mxCell id="8B9iJ12HIyYSc56M8-5m-11" value="&lt;font style=&quot;font-size: 16px;&quot;&gt;/signup endpoint&lt;br&gt;&lt;/font&gt;" style="text;html=1;align=center;verticalAlign=middle;whiteSpace=wrap;rounded=0;" parent="8B9iJ12HIyYSc56M8-5m-9" vertex="1">
          <mxGeometry x="40" y="90" width="140" height="45" as="geometry" />
        </mxCell>
        <mxCell id="8B9iJ12HIyYSc56M8-5m-33" style="edgeStyle=orthogonalEdgeStyle;rounded=0;orthogonalLoop=1;jettySize=auto;html=1;strokeColor=#FF0000;strokeWidth=3;entryX=0.4;entryY=0.946;entryDx=0;entryDy=0;entryPerimeter=0;" parent="1" source="8B9iJ12HIyYSc56M8-5m-15" target="8B9iJ12HIyYSc56M8-5m-4" edge="1">
          <mxGeometry relative="1" as="geometry">
            <mxPoint x="340" y="390" as="targetPoint" />
            <Array as="points">
              <mxPoint x="240" y="850" />
              <mxPoint x="240" y="490" />
              <mxPoint x="340" y="490" />
            </Array>
          </mxGeometry>
        </mxCell>
        <mxCell id="8B9iJ12HIyYSc56M8-5m-36" value="&lt;font color=&quot;#ff0000&quot;&gt;Error Message&lt;/font&gt;" style="edgeLabel;html=1;align=center;verticalAlign=middle;resizable=0;points=[];" parent="8B9iJ12HIyYSc56M8-5m-33" vertex="1" connectable="0">
          <mxGeometry x="0.5911" y="4" relative="1" as="geometry">
            <mxPoint y="-6" as="offset" />
          </mxGeometry>
        </mxCell>
        <mxCell id="8B9iJ12HIyYSc56M8-5m-15" value="&lt;font style=&quot;font-size: 20px;&quot;&gt;SignUp Error&lt;/font&gt;" style="ellipse;shape=umlControl;whiteSpace=wrap;html=1;strokeColor=#FF0000;strokeWidth=3;" parent="1" vertex="1">
          <mxGeometry x="450" y="760" width="140" height="160" as="geometry" />
        </mxCell>
        <mxCell id="8B9iJ12HIyYSc56M8-5m-25" style="edgeStyle=orthogonalEdgeStyle;rounded=0;orthogonalLoop=1;jettySize=auto;html=1;entryX=0.014;entryY=0.497;entryDx=0;entryDy=0;entryPerimeter=0;strokeWidth=3;" parent="1" source="8B9iJ12HIyYSc56M8-5m-4" target="8B9iJ12HIyYSc56M8-5m-5" edge="1">
          <mxGeometry relative="1" as="geometry" />
        </mxCell>
        <mxCell id="8B9iJ12HIyYSc56M8-5m-73" value="Validate input" style="edgeLabel;html=1;align=center;verticalAlign=middle;resizable=0;points=[];" parent="8B9iJ12HIyYSc56M8-5m-25" vertex="1" connectable="0">
          <mxGeometry x="-0.0654" y="3" relative="1" as="geometry">
            <mxPoint x="-1" as="offset" />
          </mxGeometry>
        </mxCell>
        <mxCell id="8B9iJ12HIyYSc56M8-5m-28" style="edgeStyle=orthogonalEdgeStyle;rounded=0;orthogonalLoop=1;jettySize=auto;html=1;entryX=0.578;entryY=0.016;entryDx=0;entryDy=0;entryPerimeter=0;strokeWidth=3;" parent="1" source="8B9iJ12HIyYSc56M8-5m-5" target="8B9iJ12HIyYSc56M8-5m-10" edge="1">
          <mxGeometry relative="1" as="geometry" />
        </mxCell>
        <mxCell id="8B9iJ12HIyYSc56M8-5m-74" value="Creates user" style="edgeLabel;html=1;align=center;verticalAlign=middle;resizable=0;points=[];" parent="8B9iJ12HIyYSc56M8-5m-28" vertex="1" connectable="0">
          <mxGeometry x="-0.1869" y="-1" relative="1" as="geometry">
            <mxPoint y="-2" as="offset" />
          </mxGeometry>
        </mxCell>
        <mxCell id="8B9iJ12HIyYSc56M8-5m-29" style="edgeStyle=orthogonalEdgeStyle;rounded=0;orthogonalLoop=1;jettySize=auto;html=1;entryX=1;entryY=0.5;entryDx=0;entryDy=0;strokeWidth=3;" parent="1" source="8B9iJ12HIyYSc56M8-5m-10" target="8B9iJ12HIyYSc56M8-5m-6" edge="1">
          <mxGeometry relative="1" as="geometry" />
        </mxCell>
        <mxCell id="8B9iJ12HIyYSc56M8-5m-30" style="edgeStyle=orthogonalEdgeStyle;rounded=0;orthogonalLoop=1;jettySize=auto;html=1;entryX=0.583;entryY=0.987;entryDx=0;entryDy=0;entryPerimeter=0;strokeWidth=3;" parent="1" source="8B9iJ12HIyYSc56M8-5m-6" target="8B9iJ12HIyYSc56M8-5m-4" edge="1">
          <mxGeometry relative="1" as="geometry" />
        </mxCell>
        <mxCell id="8B9iJ12HIyYSc56M8-5m-32" style="edgeStyle=orthogonalEdgeStyle;rounded=0;orthogonalLoop=1;jettySize=auto;html=1;entryX=1;entryY=0.563;entryDx=0;entryDy=0;entryPerimeter=0;strokeWidth=3;strokeColor=#FF0000;" parent="1" source="8B9iJ12HIyYSc56M8-5m-10" target="8B9iJ12HIyYSc56M8-5m-15" edge="1">
          <mxGeometry relative="1" as="geometry">
            <mxPoint x="666.25" y="870" as="targetPoint" />
            <Array as="points">
              <mxPoint x="680" y="850" />
            </Array>
          </mxGeometry>
        </mxCell>
        <mxCell id="8B9iJ12HIyYSc56M8-5m-37" value="&lt;font color=&quot;#ff0000&quot;&gt;Username already exists&lt;/font&gt;" style="edgeLabel;html=1;align=center;verticalAlign=middle;resizable=0;points=[];" parent="8B9iJ12HIyYSc56M8-5m-32" vertex="1" connectable="0">
          <mxGeometry x="-0.4557" y="2" relative="1" as="geometry">
            <mxPoint as="offset" />
          </mxGeometry>
        </mxCell>
        <mxCell id="8B9iJ12HIyYSc56M8-5m-39" value="User" style="shape=umlActor;verticalLabelPosition=bottom;verticalAlign=top;html=1;strokeWidth=3;" parent="1" vertex="1">
          <mxGeometry x="-120" y="238" width="80" height="160" as="geometry" />
        </mxCell>
        <mxCell id="8B9iJ12HIyYSc56M8-5m-40" style="edgeStyle=orthogonalEdgeStyle;rounded=0;orthogonalLoop=1;jettySize=auto;html=1;entryX=0;entryY=0.498;entryDx=0;entryDy=0;entryPerimeter=0;strokeWidth=3;" parent="1" source="8B9iJ12HIyYSc56M8-5m-39" target="8B9iJ12HIyYSc56M8-5m-4" edge="1">
          <mxGeometry relative="1" as="geometry" />
        </mxCell>
        <mxCell id="8B9iJ12HIyYSc56M8-5m-43" value="&lt;font style=&quot;font-size: 25px;&quot;&gt;Sign up flow&lt;/font&gt;" style="text;align=center;fontStyle=1;verticalAlign=middle;spacingLeft=3;spacingRight=3;strokeColor=none;rotatable=0;points=[[0,0.5],[1,0.5]];portConstraint=eastwest;html=1;" parent="1" vertex="1">
          <mxGeometry x="320" y="190" width="80" height="26" as="geometry" />
        </mxCell>
        <mxCell id="SwdMLuC0Jl6XGdNUzZmq-6" style="edgeStyle=orthogonalEdgeStyle;rounded=0;orthogonalLoop=1;jettySize=auto;html=1;entryX=0.99;entryY=0.565;entryDx=0;entryDy=0;entryPerimeter=0;strokeWidth=3;strokeColor=#FF0000;" edge="1" parent="1" target="SwdMLuC0Jl6XGdNUzZmq-11">
          <mxGeometry relative="1" as="geometry">
            <mxPoint x="-740" y="920" as="targetPoint" />
            <Array as="points">
              <mxPoint x="-340" y="320" />
              <mxPoint x="-340" y="850" />
            </Array>
            <mxPoint x="-690" y="320" as="sourcePoint" />
          </mxGeometry>
        </mxCell>
        <mxCell id="SwdMLuC0Jl6XGdNUzZmq-7" value="&lt;font color=&quot;#ff0000&quot;&gt;Input is invalid&lt;br&gt;&lt;/font&gt;" style="edgeLabel;html=1;align=center;verticalAlign=middle;resizable=0;points=[];" vertex="1" connectable="0" parent="SwdMLuC0Jl6XGdNUzZmq-6">
          <mxGeometry x="-0.6264" y="-2" relative="1" as="geometry">
            <mxPoint as="offset" />
          </mxGeometry>
        </mxCell>
        <mxCell id="SwdMLuC0Jl6XGdNUzZmq-9" style="edgeStyle=orthogonalEdgeStyle;rounded=0;orthogonalLoop=1;jettySize=auto;html=1;strokeColor=#FF0000;strokeWidth=3;" edge="1" parent="1" source="SwdMLuC0Jl6XGdNUzZmq-11">
          <mxGeometry relative="1" as="geometry">
            <mxPoint x="-1040" y="450" as="targetPoint" />
            <Array as="points">
              <mxPoint x="-1270" y="850" />
              <mxPoint x="-1270" y="490" />
              <mxPoint x="-1040" y="490" />
            </Array>
          </mxGeometry>
        </mxCell>
        <mxCell id="SwdMLuC0Jl6XGdNUzZmq-10" value="&lt;font color=&quot;#ff0000&quot;&gt;Error Message&lt;/font&gt;" style="edgeLabel;html=1;align=center;verticalAlign=middle;resizable=0;points=[];" vertex="1" connectable="0" parent="SwdMLuC0Jl6XGdNUzZmq-9">
          <mxGeometry x="0.5911" y="4" relative="1" as="geometry">
            <mxPoint y="-6" as="offset" />
          </mxGeometry>
        </mxCell>
        <mxCell id="SwdMLuC0Jl6XGdNUzZmq-11" value="&lt;font style=&quot;font-size: 20px;&quot;&gt;Login Error&lt;/font&gt;" style="ellipse;shape=umlControl;whiteSpace=wrap;html=1;strokeColor=#FF0000;strokeWidth=3;" vertex="1" parent="1">
          <mxGeometry x="-760" y="750" width="140" height="160" as="geometry" />
        </mxCell>
        <mxCell id="SwdMLuC0Jl6XGdNUzZmq-18" value="" style="endArrow=none;html=1;rounded=0;fontSize=12;startSize=8;endSize=8;curved=1;strokeWidth=3;strokeColor=#fd1d0d;" edge="1" parent="1">
          <mxGeometry width="50" height="50" relative="1" as="geometry">
            <mxPoint x="-510" y="850" as="sourcePoint" />
            <mxPoint x="-510" y="710" as="targetPoint" />
          </mxGeometry>
        </mxCell>
        <mxCell id="SwdMLuC0Jl6XGdNUzZmq-19" value="&lt;font color=&quot;#ff0000&quot;&gt;Username or Password is invalid&lt;/font&gt;" style="edgeLabel;html=1;align=center;verticalAlign=middle;resizable=0;points=[];" vertex="1" connectable="0" parent="1">
          <mxGeometry x="-510" y="759.9961538461538" as="geometry" />
        </mxCell>
      </root>
    </mxGraphModel>
  </diagram>
</mxfile>
